<?xml version="1.0" encoding="UTF-8"?>
<svg width="161px" height="161px" viewBox="0 0 161 161" version="1.1" xmlns="http://www.w3.org/2000/svg" xmlns:xlink="http://www.w3.org/1999/xlink">
    <!-- Generator: Sketch 54.1 (76490) - https://sketchapp.com -->
    <title>Doctor</title>
    <desc>Created with Sketch.</desc>
    <defs>
        <path d="M80.5,160.98 C124.96,160.98 161,124.95 161,80.49 C161,36.04 124.96,1.42108547e-14 80.5,1.42108547e-14 C36.041,1.42108547e-14 0,36.04 0,80.49 C0,124.95 36.041,160.98 80.5,160.98 Z" id="path-1"></path>
    </defs>
    <g id="Page-1" stroke="none" stroke-width="1" fill="none" fill-rule="evenodd">
        <g id="radio" transform="translate(-890.000000, -2095.000000)">
            <g id="Doctor" transform="translate(890.000000, 2095.000000)">
                <path d="M80.5,160.98 C124.96,160.98 161,124.95 161,80.49 C161,36.04 124.96,1.42108547e-14 80.5,1.42108547e-14 C36.041,1.42108547e-14 0,36.04 0,80.49 C0,124.95 36.041,160.98 80.5,160.98 Z" id="Path" fill="#D2EFF6"></path>
                <mask id="mask-2" fill="white">
                    <use xlink:href="#path-1"></use>
                </mask>
                <g id="Path"></g>
                <path d="M101.469,10.68 L85.429,97.91 L96.886,100.2 C121.136,82.41 131.54,10.68 101.469,10.68 Z" id="Path" fill="#80362D" mask="url(#mask-2)"></path>
                <path d="M101.035,11.02 C97.03,8.58 75.893,2.36 59.841,11.02 C40.102,21.68 22.843,59.78 50.687,98.56 C50.727,98.61 71.284,96.26 71.284,96.26 L101.035,11.02 Z" id="Path" fill="#80362D" mask="url(#mask-2)"></path>
                <path d="M96.596,87.52 L96.472,87.52 L96.472,82.13 L64.528,82.13 L64.528,87.51 C64.528,92.78 64.506,98.51 59.964,101.97 L59.964,153.59 L80.5,153.59 L101.036,153.59 L101.036,101.89 C96.61,98.42 96.596,92.74 96.596,87.52 Z" id="Path" fill="#FFD7A3" mask="url(#mask-2)"></path>
                <path d="M80.265,131.75 C75.345,131.75 70.702,130.87 66.536,129.35 L66.536,162.63 L98.571,162.63 L98.571,127.31 C93.38,130.1 87.077,131.75 80.265,131.75 Z" id="Path" fill="#545465" mask="url(#mask-2)"></path>
                <path d="M98.725,112.11 C99.568,112.34 100.327,112.46 101.036,112.52 L101.036,101.95 C96.555,98.49 96.54,92.83 96.54,87.63 L96.537,87.5 L96.537,82.13 L71.002,82.27 L64.071,84.56 C68.692,89.73 82.843,107.81 98.725,112.11 Z" id="Path" fill="#FDC88E" mask="url(#mask-2)"></path>
                <path d="M112.536,52.34 C112.536,70.71 94.311,93.63 80.5,93.63 C66.689,93.63 48.464,70.71 48.464,52.34 C48.464,33.97 62.808,27.11 80.5,27.11 C98.193,27.11 112.536,33.97 112.536,52.34 Z" id="Path" fill="#FFE1B2" mask="url(#mask-2)"></path>
                <path d="M85.173,15.61 C83.876,15.61 79.663,17.05 76.22,18.31 L75.936,17.89 C75.936,17.89 75.461,18.26 74.638,18.9 C72.723,19.62 71.318,20.18 71.318,20.18 L71.858,21.07 C63.093,27.91 43.095,43.55 41.297,45.33 C38.988,47.62 55.153,105.96 55.153,72.77 C55.153,45.05 70.709,39.56 85.173,36.19 C91.716,34.66 93.641,30.85 94.41,27.04 C95.181,23.23 87.483,15.61 85.173,15.61 Z" id="Path" fill="#80362D" mask="url(#mask-2)"></path>
                <path d="M91.658,29.18 C95.862,44.41 104.271,51.3 112.155,53.32 C116.474,54.43 114.591,40.74 114.591,40.74 C114.591,40.74 108.476,24.94 107.711,24.55 C106.947,24.17 100.831,10.68 100.831,10.68 L87.071,22.24 L91.658,29.18 Z" id="Path" fill="#80362D" mask="url(#mask-2)"></path>
                <path d="M62.252,99.38 C60.093,103.46 55.692,106.33 46.659,106.33 L45.891,106.33 C31.888,106.33 20.536,119.53 20.536,135.82 L20.536,154.58 C20.536,159.03 23.632,162.63 27.451,162.63 L74.75,162.63 L62.252,99.38 Z" id="Path" fill="#E4EBF0" mask="url(#mask-2)"></path>
                <path d="M98.79,98.82 C100.932,102.9 105.299,105.77 114.26,105.77 L115.022,105.77 C128.92,105.77 140.18,118.97 140.18,135.26 L140.18,154.03 C140.18,158.47 137.11,162.07 133.32,162.07 L86.391,162.07 L98.79,98.82 Z" id="Path" fill="#E4EBF0" mask="url(#mask-2)"></path>
                <path d="M45.589,134.7 C49.445,134.7 52.571,137.83 52.571,141.68 C52.571,145.54 49.445,148.66 45.589,148.66 C41.733,148.66 38.607,145.54 38.607,141.68 C38.607,137.83 41.733,134.7 45.589,134.7 Z" id="Path" fill="#D0D7DC" mask="url(#mask-2)"></path>
                <path d="M120.762,147.53 C123.273,143.86 124.71,138.36 124.71,132.44 C124.71,122.17 120.265,113.5 114.999,113.5 C109.734,113.5 105.286,122.17 105.286,132.44 C105.286,138.36 106.726,143.86 109.237,147.53 L106.411,149.48 C103.518,145.25 101.857,139.04 101.857,132.44 C101.857,119.89 107.63,110.06 115,110.06 C122.37,110.06 128.14,119.89 128.14,132.44 C128.14,139.04 126.48,145.25 123.588,149.48 L120.762,147.53 Z" id="Path" fill="#D0D7DC" mask="url(#mask-2)"></path>
                <path d="M107.607,146.2 C108.968,146.2 110.071,147.3 110.071,148.66 C110.071,150.02 108.968,151.13 107.607,151.13 C106.246,151.13 105.143,150.02 105.143,148.66 C105.143,147.3 106.246,146.2 107.607,146.2 Z" id="Path" fill="#545465" mask="url(#mask-2)"></path>
                <path d="M121.571,146.2 C122.932,146.2 124.04,147.3 124.04,148.66 C124.04,150.02 122.932,151.13 121.571,151.13 C120.21,151.13 119.107,150.02 119.107,148.66 C119.107,147.3 120.21,146.2 121.571,146.2 Z" id="Path" fill="#545465" mask="url(#mask-2)"></path>
                <path d="M46.082,138.81 C45.129,138.81 44.357,138.04 44.357,137.08 C44.357,107.28 58.444,99.11 59.044,98.78 C59.878,98.32 60.927,98.62 61.389,99.45 C61.851,100.28 61.554,101.33 60.728,101.79 C60.559,101.89 47.807,109.54 47.807,137.08 C47.807,138.04 47.035,138.81 46.082,138.81 Z" id="Path" fill="#D0D7DC" mask="url(#mask-2)"></path>
                <path d="M45.589,137.98 C47.63,137.98 49.285,139.64 49.285,141.68 C49.285,143.72 47.63,145.38 45.589,145.38 C43.548,145.38 41.893,143.72 41.893,141.68 C41.893,139.64 43.548,137.98 45.589,137.98 Z" id="Path" fill="#EFF1FA" mask="url(#mask-2)"></path>
                <path d="M114.882,114.17 C114.157,114.17 113.478,113.71 113.223,112.98 C111.694,108.6 109.204,106.74 109.18,106.73 C108.383,106.16 108.19,105.05 108.747,104.25 C109.304,103.44 110.401,103.25 111.198,103.81 C111.338,103.91 114.617,106.28 116.542,111.79 C116.866,112.72 116.384,113.74 115.468,114.06 C115.274,114.13 115.076,114.17 114.882,114.17 Z" id="Path" fill="#D0D7DC" mask="url(#mask-2)"></path>
                <path d="M109.427,52.78 C113.291,51.91 115.821,53.76 115.821,57.4 C115.821,62.21 110.626,74 105.165,66.63 C99.703,59.27 109.427,52.78 109.427,52.78 Z" id="Path" fill="#FFE1B2" mask="url(#mask-2)"></path>
                <polyline id="Path" fill="#80362D" mask="url(#mask-2)" points="101.469 10.68 101.036 10.68 100.214 10.68 101.469 11.91"></polyline>
            </g>
        </g>
    </g>
</svg>